<svg xmlns="http://www.w3.org/2000/svg" width="793.701" height="1122.518" class="st5" color-interpolation-filters="sRGB" viewBox="0 0 595.276 841.89" xml:space="preserve"><style type="text/css">.st1,.st2{fill:#969696;stroke:#000;stroke-linecap:round;stroke-linejoin:round;stroke-width:.24}.st2{fill:#dde2cd}.st3{fill:#000;font-family:Arial;font-size:2.50001em;font-weight:700}.st4{font-size:.333333em;font-weight:400}.st5{fill:none;fill-rule:evenodd;font-size:12;overflow:visible;stroke-linecap:square;stroke-miterlimit:3}</style><g><title>Page-1</title><g id="group9-1" transform="translate(549.921,-255.118) scale(-1,1)"><title>3-D box.9</title><desc>Core The IoC container</desc><g id="shape10-2" transform="translate(0,14.1732)"><title>Sheet.10</title><path d="M0 827.72 L521.57 827.72 L507.4 841.89 L-14.17 841.89 L0 827.72 Z" class="st1"/></g><g id="shape11-4" transform="translate(-14.1732,0)"><title>Sheet.11</title><path d="M0 856.06 L14.17 841.89 L14.17 756.85 L0 771.02 L0 856.06 Z" class="st1"/></g><g id="shape12-6"><title>Sheet.12</title><rect width="521.575" height="85.039" x="0" y="756.85" class="st2"/></g><g id="shape9-8"><text x="-294.97" y="797.57" class="st3" transform="scale(-1,1)">Core<tspan x="-300.54" class="st4" dy="2.76em">The IoC container</tspan></text></g></g><g id="group1-11" transform="translate(269.291,-368.504) scale(-1,1)"><title>3-D box.1</title><desc>AOP Spring AOP AspectJ integration</desc><g id="shape2-12" transform="translate(0,14.1732)"><title>Sheet.2</title><path d="M0 827.72 L240.94 827.72 L226.77 841.89 L-14.17 841.89 L0 827.72 Z" class="st1"/></g><g id="shape3-14" transform="translate(-14.1732,0)"><title>Sheet.3</title><path d="M0 856.06 L14.17 841.89 L14.17 756.85 L0 771.02 L0 856.06 Z" class="st1"/></g><g id="shape4-16"><title>Sheet.4</title><rect width="240.945" height="85.039" x="0" y="756.85" class="st2"/></g><g id="shape1-18"><text x="-152.97" y="791.57" class="st3" transform="scale(-1,1)">AOP<tspan x="-146.87" class="st4" dy="2.76em">Spring AOP</tspan><tspan x="-162.99" class="st4" dy="1.2em">AspectJ integration</tspan></text></g></g><g id="group5-22" transform="translate(133.228,-481.89) scale(-1,1)"><title>3-D box.5</title><desc>DAO Spring JDBC Transaction management</desc><g id="shape6-23" transform="translate(0,14.1732)"><title>Sheet.6</title><path d="M0 827.72 L104.88 827.72 L90.71 841.89 L-14.17 841.89 L0 827.72 Z" class="st1"/></g><g id="shape7-25" transform="translate(-14.1732,0)"><title>Sheet.7</title><path d="M0 856.06 L14.17 841.89 L14.17 657.64 L0 671.81 L0 856.06 Z" class="st1"/></g><g id="shape8-27"><title>Sheet.8</title><rect width="104.882" height="184.252" x="0" y="657.638" class="st2"/></g><g id="shape5-29"><text x="-85.76" y="735.96" class="st3" transform="scale(-1,1)">DAO<tspan x="-81.33" class="st4" dy="2.76em">Spring JDBC</tspan><tspan x="-78.56" class="st4" dy="1.2em">Transaction </tspan><tspan x="-81.62" class="st4" dy="1.2em">management</tspan></text></g></g><g id="group13-34" transform="translate(413.858,-368.504) scale(-1,1)"><title>3-D box.13</title><desc>JEE JMX JMS JCA Remoting EJBs Email</desc><g id="shape14-35" transform="translate(0,14.1732)"><title>Sheet.14</title><path d="M0 827.72 L113.39 827.72 L99.21 841.89 L-14.17 841.89 L0 827.72 Z" class="st1"/></g><g id="shape15-37" transform="translate(-14.1732,0)"><title>Sheet.15</title><path d="M0 856.06 L14.17 841.89 L14.17 544.25 L0 558.43 L0 856.06 Z" class="st1"/></g><g id="shape16-39"><title>Sheet.16</title><rect width="113.386" height="297.638" x="0" y="544.252" class="st2"/></g><g id="shape13-41"><text x="-85.04" y="661.27" class="st3" transform="scale(-1,1)">JEE<tspan x="-66.69" class="st4" dy="2.76em">JMX</tspan><tspan x="-66.69" class="st4" dy="1.2em">JMS</tspan><tspan x="-66.13" class="st4" dy="1.2em">JCA</tspan><tspan x="-78.08" class="st4" dy="1.2em">Remoting</tspan><tspan x="-68.36" class="st4" dy="1.2em">EJBs</tspan><tspan x="-69.19" class="st4" dy="1.2em">Email</tspan></text></g></g><g id="group17-49" transform="translate(552.756,-368.504) scale(-1,1)"><title>3-D box.17</title><desc>Web Spring Web MVC Framework Integration Struts WebWork Tapes...</desc><g id="shape18-50" transform="translate(0,14.1732)"><title>Sheet.18</title><path d="M0 827.72 L113.39 827.72 L99.21 841.89 L-14.17 841.89 L0 827.72 Z" class="st1"/></g><g id="shape19-52" transform="translate(-14.1732,0)"><title>Sheet.19</title><path d="M0 856.06 L14.17 841.89 L14.17 544.25 L0 558.43 L0 856.06 Z" class="st1"/></g><g id="shape20-54"><title>Sheet.20</title><rect width="113.386" height="297.638" x="0" y="544.252" class="st2"/></g><g id="shape17-56"><text x="-88.35" y="613.27" class="st3" transform="scale(-1,1)">Web<tspan x="-95.31" class="st4" dy="2.76em">Spring Web MVC</tspan><tspan x="-106.71" class="st4" dy="1.2em">Framework Integration</tspan><tspan x="-69.75" class="st4" dy="1.2em">Struts</tspan><tspan x="-78.63" class="st4" dy="1.2em">WebWork</tspan><tspan x="-76.14" class="st4" dy="1.2em">Tapestry</tspan><tspan x="-65.57" class="st4" dy="1.2em">JSF</tspan><tspan x="-97.82" class="st4" dy="1.2em">Rich View Support</tspan><tspan x="-68.36" class="st4" dy="1.2em">JSPs</tspan><tspan x="-74.19" class="st4" dy="1.2em">Velocity</tspan><tspan x="-82.52" class="st4" dy="1.2em">FreeMarker</tspan><tspan x="-66.69" class="st4" dy="1.2em">PDF</tspan><tspan x="-90.59" class="st4" dy="1.2em">Jasper Reports</tspan><tspan x="-68.91" class="st4" dy="1.2em">Excel</tspan><tspan x="-99.48" class="st4" dy="1.2em">Spring Portlet MVC</tspan></text></g></g><g id="group21-72" transform="translate(269.291,-481.89) scale(-1,1)"><title>3-D box.21</title><desc>ORM Hibernate JPA TopLink JDO OJB iBatis</desc><g id="shape22-73" transform="translate(0,14.1732)"><title>Sheet.22</title><path d="M0 827.72 L107.72 827.72 L93.54 841.89 L-14.17 841.89 L0 827.72 Z" class="st1"/></g><g id="shape23-75" transform="translate(-14.1732,0)"><title>Sheet.23</title><path d="M0 856.06 L14.17 841.89 L14.17 657.64 L0 671.81 L0 856.06 Z" class="st1"/></g><g id="shape24-77"><title>Sheet.24</title><rect width="107.717" height="184.252" x="0" y="657.638" class="st2"/></g><g id="shape21-79"><text x="-88.86" y="717.96" class="st3" transform="scale(-1,1)">ORM<tspan x="-75.55" class="st4" dy="2.76em">Hibernate</tspan><tspan x="-63.04" class="st4" dy="1.2em">JPA</tspan><tspan x="-71.65" class="st4" dy="1.2em">TopLink</tspan><tspan x="-63.87" class="st4" dy="1.2em">JDO</tspan><tspan x="-63.59" class="st4" dy="1.2em">OJB</tspan><tspan x="-66.09" class="st4" dy="1.2em">iBatis</tspan></text></g></g></g></svg>